<svg width="1920" height="173" viewBox="0 0 1920 173" fill="none" xmlns="http://www.w3.org/2000/svg">
<g clip-path="url(#clip0_466_37127)">
<path opacity="0.4" d="M-770.459 -178.671C-592.789 -178.671 1977.79 -178.671 2142 -178.671C2142 -70.6483 2142 41.9807 2142 168.314C2048.86 166.587 1968.3 163.593 1913.57 159.562C1686.46 143.094 1462.22 107.163 1215.69 123.286C1137.34 128.353 1062.96 136.299 990.568 144.13C942.013 151.27 892.574 156.337 842.694 159.447C740.948 168.66 641.188 173.612 537.896 165.55C491.989 161.98 -9.01721 101.75 -241.643 117.067C-429.907 129.274 -602.28 163.593 -770.459 168.429C-770.459 148.276 -770.459 -178.671 -770.459 -178.671Z" fill="#008BD2" fill-opacity="0.37"/>
</g>
<g clip-path="url(#clip1_466_37127)">
<path opacity="0.4" d="M-770.459 351.671C-592.789 351.671 1977.79 351.671 2142 351.671C2142 243.648 2142 131.019 2142 4.68582C2048.86 6.41327 1968.3 9.40747 1913.57 13.4382C1686.46 29.9064 1462.22 65.8372 1215.69 49.7144C1137.34 44.6472 1062.96 36.701 990.568 28.87C942.013 21.7299 892.574 16.6627 842.694 13.5533C740.948 4.3403 641.188 -0.611664 537.896 7.44974C491.989 11.0198 -9.01721 71.2498 -241.643 55.9332C-429.907 43.726 -602.28 9.40747 -770.459 4.57065C-770.459 24.7241 -770.459 351.671 -770.459 351.671Z" fill="#008BD2" fill-opacity="0.37"/>
</g>
<defs>
<clipPath id="clip0_466_37127">
<rect width="1920" height="86.5" fill="white" transform="translate(0 86.5)"/>
</clipPath>
<clipPath id="clip1_466_37127">
<rect width="1920" height="86.5" fill="white" transform="matrix(1 0 0 -1 0 86.5)"/>
</clipPath>
</defs>
</svg>
