<svg width="1920" height="306" viewBox="0 0 1920 306" fill="none" xmlns="http://www.w3.org/2000/svg">
<g clip-path="url(#clip0_466_37116)">
<path opacity="0.4" d="M2690.46 622.03C2512.79 622.03 -57.7939 622.03 -222 622.03C-222 430.961 -222 231.745 -222 8.28796C-128.862 11.3434 -48.3035 16.6395 6.43213 23.769C233.541 52.8978 457.779 116.452 704.31 87.9338C782.661 78.9711 857.04 64.916 929.432 51.0646C977.987 38.4353 1027.43 29.4725 1077.31 23.9727C1179.05 7.67682 1278.81 -1.08215 1382.1 13.1767C1428.01 19.4913 1929.02 126.025 2161.64 98.9336C2349.91 77.3416 2522.28 16.6395 2690.46 8.08423C2690.46 43.7314 2690.46 622.03 2690.46 622.03Z" fill="white"/>
</g>
<g clip-path="url(#clip1_466_37116)">
<path opacity="0.4" d="M2690.46 -316.03C2512.79 -316.03 -57.7939 -316.03 -222 -316.03C-222 -124.961 -222 74.2552 -222 297.712C-128.862 294.657 -48.3035 289.36 6.43213 282.231C233.541 253.102 457.779 189.548 704.31 218.066C782.661 227.029 857.04 241.084 929.432 254.935C977.987 267.565 1027.43 276.527 1077.31 282.027C1179.05 298.323 1278.81 307.082 1382.1 292.823C1428.01 286.509 1929.02 179.975 2161.64 207.066C2349.91 228.658 2522.28 289.36 2690.46 297.916C2690.46 262.269 2690.46 -316.03 2690.46 -316.03Z" fill="white"/>
</g>
<defs>
<clipPath id="clip0_466_37116">
<rect width="1920" height="153" fill="white" transform="matrix(-1 0 0 -1 1920 153)"/>
</clipPath>
<clipPath id="clip1_466_37116">
<rect width="1920" height="153" fill="white" transform="matrix(-1 0 0 1 1920 153)"/>
</clipPath>
</defs>
</svg>
