<?xml version="1.0" standalone="no"?>
<!DOCTYPE svg PUBLIC "-//W3C//DTD SVG 20010904//EN"
 "http://www.w3.org/TR/2001/REC-SVG-20010904/DTD/svg10.dtd">
<svg version="1.0" xmlns="http://www.w3.org/2000/svg"
 width="1212.000000pt" height="1522.000000pt" viewBox="0 0 1212.000000 1522.000000"
 preserveAspectRatio="xMidYMid meet">

<g transform="translate(0.000000,1522.000000) scale(0.100000,-0.100000)"
fill="#000000" stroke="none">
<path d="M4875 15130 c-4 -6 -70 -10 -165 -10 -95 0 -161 -4 -165 -10 -3 -5
-33 -10 -65 -10 -32 0 -62 -4 -65 -10 -3 -5 -37 -10 -74 -10 -49 0 -72 -4 -81
-15 -8 -10 -31 -15 -71 -15 -32 0 -61 -4 -64 -10 -3 -5 -24 -10 -45 -10 -21 0
-42 -4 -45 -10 -3 -5 -24 -10 -46 -10 -21 0 -39 -4 -39 -10 0 -5 -18 -10 -39
-10 -22 0 -43 -4 -46 -10 -3 -5 -24 -10 -45 -10 -21 0 -42 -4 -45 -10 -3 -5
-24 -10 -46 -10 -21 0 -39 -4 -39 -10 0 -5 -18 -10 -39 -10 -22 0 -43 -4 -46
-10 -3 -5 -16 -10 -29 -10 -25 0 -82 -25 -91 -41 -4 -5 -17 -9 -30 -9 -13 0
-27 -4 -30 -10 -3 -5 -19 -10 -35 -10 -16 0 -32 -4 -35 -10 -3 -5 -17 -10 -30
-10 -13 0 -27 -4 -30 -10 -3 -5 -15 -10 -26 -10 -10 0 -19 -4 -19 -10 0 -5
-13 -10 -29 -10 -17 0 -33 -4 -36 -10 -3 -5 -19 -10 -36 -10 -16 0 -29 -4 -29
-10 0 -5 -6 -10 -13 -10 -11 0 -71 -28 -127 -59 -49 -28 -145 -71 -156 -71 -8
0 -14 -4 -14 -10 0 -5 -7 -10 -15 -10 -8 0 -30 -9 -50 -20 -20 -11 -42 -20
-50 -20 -8 0 -15 -4 -15 -10 0 -5 -8 -10 -18 -10 -11 0 -27 -9 -37 -20 -10
-11 -42 -32 -72 -46 -29 -15 -53 -30 -53 -35 0 -5 -9 -9 -20 -9 -11 0 -20 -4
-20 -10 0 -5 -8 -10 -18 -10 -11 0 -27 -9 -37 -20 -10 -11 -26 -20 -37 -20
-10 0 -18 -4 -18 -10 0 -5 -8 -10 -18 -10 -10 0 -29 -11 -42 -25 -13 -14 -29
-25 -35 -25 -6 0 -24 -13 -40 -30 -16 -16 -35 -30 -43 -30 -8 0 -27 -13 -42
-30 -15 -16 -35 -30 -42 -30 -8 0 -23 -9 -33 -20 -10 -11 -23 -20 -29 -20 -6
0 -28 -16 -48 -35 -20 -19 -42 -35 -49 -35 -6 0 -44 -32 -84 -71 -40 -39 -84
-77 -98 -84 -13 -7 -63 -50 -111 -95 -47 -46 -100 -90 -116 -98 -17 -8 -30
-21 -30 -29 0 -8 -19 -33 -43 -55 -142 -135 -197 -192 -197 -202 0 -6 -25 -35
-55 -63 -30 -29 -55 -57 -55 -64 0 -6 -13 -24 -30 -39 -16 -15 -30 -32 -30
-37 0 -5 -16 -24 -35 -43 -19 -19 -35 -39 -35 -45 0 -6 -16 -26 -35 -45 -19
-19 -35 -39 -35 -45 0 -6 -12 -22 -26 -36 -14 -13 -34 -42 -44 -65 -11 -22
-26 -47 -35 -54 -9 -7 -25 -32 -35 -55 -10 -23 -26 -48 -35 -55 -8 -7 -15 -18
-15 -25 0 -6 -9 -20 -21 -31 -11 -10 -29 -37 -39 -60 -11 -22 -26 -47 -35 -54
-8 -7 -15 -18 -15 -25 0 -7 -7 -18 -15 -25 -8 -7 -13 -16 -10 -20 3 -5 1 -11
-4 -14 -5 -4 -26 -41 -47 -84 -21 -42 -44 -85 -52 -94 -8 -10 -12 -24 -9 -32
4 -9 2 -18 -2 -21 -14 -8 -106 -198 -103 -211 1 -6 -5 -17 -13 -24 -8 -7 -15
-25 -15 -41 0 -16 -4 -29 -10 -29 -5 0 -10 -9 -10 -20 0 -11 -4 -20 -10 -20
-5 0 -10 -13 -10 -30 0 -16 -4 -30 -10 -30 -5 0 -10 -13 -10 -29 0 -16 -6 -34
-14 -41 -8 -6 -12 -18 -9 -26 3 -8 -1 -22 -8 -32 -27 -33 -39 -62 -39 -91 0
-17 -4 -33 -10 -36 -5 -3 -10 -24 -10 -46 0 -21 -4 -39 -10 -39 -5 0 -10 -18
-10 -39 0 -22 -4 -43 -10 -46 -5 -3 -10 -21 -10 -39 0 -19 -7 -39 -15 -46 -8
-7 -15 -23 -15 -36 0 -12 -5 -26 -10 -29 -6 -3 -10 -28 -10 -56 0 -27 -4 -49
-10 -49 -6 0 -10 -26 -10 -59 0 -33 -5 -63 -10 -66 -6 -3 -10 -37 -10 -76 0
-39 -4 -69 -10 -69 -6 0 -10 -26 -10 -59 0 -40 -5 -63 -15 -71 -12 -10 -15
-40 -15 -151 0 -81 -4 -140 -10 -144 -14 -8 -14 -525 0 -525 6 0 10 -55 10
-144 0 -115 3 -146 15 -156 10 -8 15 -31 15 -66 0 -29 4 -56 10 -59 5 -3 10
-37 10 -75 0 -38 5 -72 10 -75 6 -3 10 -33 10 -66 0 -33 4 -59 10 -59 6 0 10
-22 10 -49 0 -28 5 -53 10 -56 5 -3 10 -17 10 -29 0 -13 7 -29 15 -36 8 -7 15
-27 15 -46 0 -18 5 -36 10 -39 6 -3 10 -24 10 -46 0 -21 5 -39 10 -39 6 0 10
-18 10 -40 0 -22 5 -40 10 -40 6 0 10 -16 10 -35 0 -35 11 -63 39 -97 7 -10
11 -24 8 -32 -3 -8 0 -20 7 -26 8 -6 16 -40 19 -78 3 -37 10 -87 15 -112 5
-25 19 -90 30 -145 24 -115 37 -155 52 -155 5 0 10 -9 10 -20 0 -11 5 -20 10
-20 6 0 10 -13 10 -29 0 -17 5 -33 10 -36 6 -3 10 -14 10 -24 0 -21 27 -78 41
-87 5 -3 7 -14 4 -24 -3 -10 -1 -21 4 -24 16 -10 41 -67 41 -93 0 -12 5 -23
10 -23 6 0 10 -9 10 -20 0 -11 5 -20 10 -20 6 0 10 -13 10 -30 0 -16 5 -30 10
-30 6 0 10 -9 10 -20 0 -11 7 -23 15 -26 9 -4 15 -19 15 -35 0 -16 5 -29 10
-29 6 0 10 -9 10 -20 0 -11 5 -20 10 -20 6 0 10 -11 10 -25 0 -13 9 -40 20
-60 11 -20 20 -44 20 -55 0 -10 4 -21 9 -25 14 -8 41 -65 41 -86 0 -10 5 -21
10 -24 6 -3 10 -19 10 -36 0 -16 5 -29 10 -29 6 0 10 -9 10 -20 0 -11 5 -20
10 -20 6 0 10 -11 10 -24 0 -13 7 -29 15 -36 8 -7 15 -21 15 -31 0 -11 5 -19
10 -19 6 0 10 -13 10 -30 0 -16 5 -30 10 -30 6 0 10 -9 10 -20 0 -11 5 -20 10
-20 6 0 10 -11 10 -23 0 -26 25 -83 41 -92 5 -4 9 -15 9 -25 0 -11 9 -35 20
-55 11 -20 20 -44 20 -55 0 -10 4 -22 10 -25 5 -3 10 -33 10 -66 0 -33 4 -59
10 -59 6 0 10 -38 10 -94 0 -74 3 -95 15 -100 12 -4 15 -25 15 -95 0 -49 5
-93 10 -96 6 -3 10 -46 10 -95 0 -49 5 -92 10 -95 5 -3 10 -46 10 -95 0 -49 5
-92 10 -95 5 -3 10 -46 10 -96 0 -53 4 -89 10 -89 6 0 10 -33 10 -79 0 -51 4
-82 13 -89 8 -7 13 -43 15 -99 2 -48 7 -92 13 -97 5 -6 9 -49 9 -96 0 -74 3
-90 20 -105 16 -15 20 -31 20 -87 0 -39 4 -68 10 -68 6 0 10 -45 10 -114 0
-75 4 -116 11 -118 6 -2 13 -34 15 -72 1 -38 8 -74 13 -79 6 -6 11 -42 11 -79
0 -39 4 -68 10 -68 6 0 10 -30 10 -69 0 -39 5 -73 10 -76 6 -3 10 -24 10 -46
0 -21 5 -39 10 -39 6 0 10 -17 10 -39 0 -23 6 -44 16 -52 10 -8 14 -23 12 -41
-3 -16 1 -33 9 -39 7 -6 13 -26 13 -45 0 -18 4 -36 10 -39 5 -3 10 -24 10 -46
0 -21 5 -39 10 -39 6 0 10 -15 10 -33 0 -34 23 -91 40 -102 5 -3 7 -12 3 -21
-3 -8 1 -22 8 -32 24 -30 39 -61 39 -81 0 -11 5 -23 10 -26 6 -3 10 -19 10
-36 0 -16 5 -29 10 -29 6 0 10 -9 10 -20 0 -11 5 -20 10 -20 6 0 10 -11 10
-24 0 -13 7 -29 15 -36 8 -7 15 -25 15 -41 0 -16 5 -29 10 -29 6 0 10 -13 10
-30 0 -16 5 -30 10 -30 6 0 10 -9 10 -20 0 -11 5 -20 10 -20 6 0 10 -6 10 -13
0 -21 30 -77 41 -77 5 0 9 -9 9 -20 0 -11 5 -20 10 -20 6 0 10 -9 10 -20 0
-11 5 -20 10 -20 6 0 10 -12 11 -27 0 -16 14 -50 29 -78 16 -27 38 -68 49 -91
11 -22 27 -47 36 -54 8 -7 15 -18 15 -25 0 -6 9 -20 21 -31 11 -10 29 -37 40
-61 10 -23 23 -45 29 -48 6 -3 19 -25 30 -49 10 -23 26 -49 35 -56 8 -7 29
-41 45 -76 17 -34 44 -74 60 -88 17 -13 30 -30 30 -36 0 -7 13 -25 30 -40 16
-15 30 -34 30 -42 0 -8 20 -32 45 -54 24 -21 45 -46 45 -54 0 -8 11 -24 25
-34 13 -10 23 -22 20 -26 -2 -4 11 -22 30 -40 19 -19 35 -39 35 -45 0 -7 49
-60 110 -119 60 -58 110 -110 110 -116 0 -5 46 -53 102 -107 55 -54 116 -113
134 -130 18 -18 39 -33 46 -33 7 -1 64 -50 127 -110 62 -61 119 -110 125 -110
7 0 25 -13 41 -30 16 -16 34 -30 40 -30 7 0 26 -13 43 -30 18 -16 38 -30 45
-30 7 0 31 -18 52 -41 22 -22 55 -47 73 -56 17 -8 32 -19 32 -24 0 -5 8 -9 18
-9 10 0 24 -9 32 -20 8 -11 22 -20 31 -20 9 0 24 -9 34 -20 10 -11 23 -20 30
-20 6 0 22 -11 35 -25 13 -14 29 -25 35 -25 18 0 71 -28 85 -45 7 -8 20 -15
29 -15 9 0 23 -9 31 -20 8 -11 19 -20 26 -20 17 0 70 -29 84 -45 7 -8 18 -15
25 -15 7 0 18 -7 25 -15 7 -8 21 -15 31 -15 11 0 19 -4 19 -10 0 -5 7 -10 15
-10 8 0 30 -9 50 -20 20 -11 47 -20 60 -20 14 0 25 -4 25 -10 0 -5 6 -10 14
-10 19 0 96 -42 96 -52 0 -4 8 -8 18 -9 9 0 31 -9 47 -19 59 -37 88 -50 112
-50 12 0 23 -4 23 -10 0 -5 13 -10 29 -10 17 0 33 -4 36 -10 3 -5 19 -10 36
-10 16 0 29 -4 29 -10 0 -5 9 -10 19 -10 11 0 23 -4 26 -10 3 -5 19 -10 36
-10 16 0 29 -4 29 -10 0 -5 13 -10 29 -10 17 0 33 -4 36 -10 3 -5 16 -10 28
-10 12 0 31 -7 41 -15 10 -8 23 -12 28 -9 5 3 20 -1 33 -10 13 -9 33 -16 44
-16 11 0 23 -4 26 -10 3 -5 19 -10 36 -10 16 0 29 -4 29 -10 0 -5 20 -10 45
-10 25 0 45 -4 45 -10 0 -5 13 -10 29 -10 17 0 33 -4 36 -10 3 -5 24 -10 46
-10 21 0 39 -4 39 -10 0 -5 18 -10 39 -10 22 0 43 -4 46 -10 3 -5 24 -10 45
-10 21 0 42 -4 45 -10 3 -5 37 -10 75 -10 38 0 72 -4 75 -10 3 -5 37 -10 74
-10 49 0 72 -4 81 -15 9 -10 32 -15 76 -15 36 0 64 -4 64 -10 0 -6 53 -10 139
-10 83 0 142 -4 146 -10 8 -14 712 -14 720 0 4 6 62 10 140 10 78 0 136 4 140
10 3 5 39 10 79 10 53 0 77 4 86 15 9 11 32 15 81 15 37 0 71 5 74 10 3 6 33
10 65 10 32 0 62 5 65 10 3 6 28 10 56 10 27 0 49 5 49 10 0 6 13 10 29 10 17
0 33 5 36 10 3 6 24 10 45 10 21 0 42 4 45 10 3 5 24 10 46 10 21 0 39 5 39
10 0 6 13 10 29 10 17 0 33 5 36 10 3 6 24 10 45 10 21 0 42 5 45 10 3 6 17
10 29 10 13 0 29 7 36 15 7 8 23 15 36 15 13 0 39 9 59 20 20 11 47 20 60 20
14 0 25 5 25 10 0 6 13 10 29 10 17 0 33 4 36 10 3 5 19 10 36 10 16 0 29 5
29 10 0 6 13 10 29 10 17 0 33 5 36 10 3 6 19 10 36 10 16 0 29 5 29 10 0 6 8
10 18 11 9 0 31 9 47 19 52 32 88 50 102 50 7 0 13 5 13 10 0 6 9 10 20 10 11
0 20 5 20 10 0 6 9 10 19 10 11 0 23 5 26 10 3 6 15 10 26 10 10 0 19 5 19 10
0 6 9 10 20 10 11 0 20 5 20 10 0 6 6 10 13 10 11 0 79 32 127 60 8 4 31 15
51 24 20 9 42 22 49 31 7 8 21 15 31 15 11 0 19 5 19 10 0 6 9 10 20 10 11 0
20 4 20 9 0 5 15 16 34 25 18 8 39 22 46 31 7 8 18 15 24 15 7 0 23 11 36 25
13 14 29 25 35 25 18 0 71 28 85 45 7 8 20 15 29 15 9 0 23 9 31 20 8 11 22
20 30 20 9 0 31 16 50 35 19 19 39 35 44 35 6 0 29 18 51 40 22 21 46 39 53
40 7 0 27 13 45 30 18 16 37 30 42 30 6 0 36 25 67 55 32 30 63 55 69 55 6 0
48 36 93 79 146 142 169 163 193 172 13 5 23 15 23 22 0 8 38 51 85 95 47 45
85 86 85 91 0 6 41 50 90 98 50 48 90 92 90 98 0 6 14 24 30 40 17 16 30 34
30 41 0 6 16 26 35 43 19 17 35 37 35 45 0 8 16 28 35 45 19 17 35 35 35 42 0
6 14 24 30 39 17 15 30 34 30 42 0 7 9 19 19 25 19 12 51 67 51 87 0 7 9 18
20 26 11 8 20 22 20 32 0 10 5 18 10 18 6 0 10 7 10 16 0 9 11 25 25 36 14 11
25 25 25 32 0 7 9 21 20 31 11 10 20 26 20 37 0 10 5 18 10 18 6 0 10 6 10 13
0 8 9 22 20 32 22 20 50 71 50 92 0 7 5 13 10 13 6 0 10 9 10 20 0 11 5 20 10
20 6 0 10 9 10 20 0 11 4 20 9 20 11 0 41 56 41 77 0 7 5 13 10 13 6 0 10 14
10 30 0 17 5 30 10 30 6 0 10 9 10 20 0 11 5 20 10 20 6 0 10 9 10 19 0 10 7
21 15 25 8 3 15 15 15 26 0 11 5 20 10 20 6 0 10 9 10 20 0 11 5 20 10 20 6 0
10 9 10 20 0 11 5 20 10 20 6 0 10 9 10 20 0 11 5 20 10 20 6 0 10 13 10 29 0
16 7 34 15 41 9 7 13 21 10 31 -3 9 -1 20 4 23 14 9 41 66 41 87 0 10 5 21 10
24 6 3 10 19 10 36 0 16 5 29 10 29 6 0 10 12 10 26 0 14 6 32 14 40 8 7 12
23 9 34 -3 12 1 22 11 26 10 4 16 18 16 35 0 16 5 29 10 29 6 0 10 18 10 39 0
22 5 43 10 46 5 3 10 26 10 50 0 24 5 47 10 50 6 3 10 24 10 45 0 21 5 40 12
42 7 3 11 18 10 35 -1 18 5 38 13 46 8 9 15 31 15 51 0 19 4 38 10 41 6 3 10
33 10 66 0 33 4 59 10 59 6 0 10 26 10 59 0 33 5 63 10 66 6 3 10 33 10 66 0
33 4 59 10 59 6 0 10 26 10 59 0 40 5 63 15 71 12 10 15 42 15 166 0 96 4 154
10 154 6 0 10 87 10 240 0 153 -4 240 -10 240 -6 0 -10 61 -10 164 0 133 -3
166 -15 176 -9 8 -15 29 -15 56 0 23 -4 46 -10 49 -5 3 -10 33 -10 65 0 32 -4
62 -10 65 -5 3 -10 37 -10 76 0 39 -4 69 -10 69 -6 0 -10 26 -10 59 0 33 -4
63 -10 66 -5 3 -10 20 -10 36 0 16 -7 41 -16 54 -9 14 -14 34 -11 45 3 10 -1
24 -9 31 -8 6 -14 29 -14 50 0 22 -4 39 -10 39 -5 0 -10 18 -10 39 0 22 -4 43
-10 46 -5 3 -10 21 -10 40 0 19 -4 37 -10 40 -5 3 -10 23 -10 45 0 26 -5 40
-16 44 -10 4 -14 14 -11 26 3 11 -1 27 -9 34 -8 8 -14 22 -14 30 0 9 -4 16
-10 16 -5 0 -10 14 -10 30 0 17 -4 30 -10 30 -5 0 -10 13 -10 29 0 17 -4 33
-10 36 -5 3 -10 17 -10 29 0 13 -7 29 -15 36 -8 7 -13 16 -10 20 3 4 -2 13
-10 20 -8 7 -15 21 -15 31 0 10 -9 34 -20 54 -11 20 -20 47 -20 60 0 14 -4 25
-10 25 -5 0 -10 9 -10 19 0 10 -7 22 -16 25 -8 3 -13 10 -10 15 3 5 -1 14 -9
21 -8 7 -15 21 -15 31 0 11 -4 19 -10 19 -5 0 -10 9 -10 20 0 11 -4 20 -10 20
-5 0 -10 9 -10 20 0 11 -4 20 -10 20 -5 0 -10 9 -10 20 0 11 -4 20 -10 20 -5
0 -10 9 -10 20 0 11 -7 23 -15 26 -8 4 -15 15 -15 25 0 10 -4 19 -10 19 -5 0
-10 14 -10 30 0 17 -4 30 -10 30 -5 0 -10 9 -10 20 0 11 -4 20 -9 20 -5 0 -16
16 -25 35 -9 19 -21 35 -26 35 -6 0 -10 8 -10 18 0 10 -9 24 -20 32 -11 8 -20
21 -20 30 0 9 -9 22 -20 30 -11 8 -20 23 -20 33 0 9 -7 20 -15 23 -8 4 -15 14
-15 23 0 9 -9 23 -20 31 -11 8 -20 22 -20 32 0 10 -4 18 -10 18 -5 0 -10 8
-10 18 0 9 -11 26 -25 36 -14 10 -25 25 -25 33 0 8 -14 28 -30 43 -16 15 -30
33 -30 39 0 7 -16 25 -35 42 -19 17 -35 37 -35 44 0 7 -7 18 -15 25 -9 7 -25
32 -35 55 -10 23 -26 48 -35 55 -8 7 -23 29 -32 49 -9 20 -23 44 -31 54 -18
20 -33 46 -61 104 -12 23 -25 45 -31 48 -6 3 -19 26 -30 50 -11 24 -25 47 -30
50 -6 4 -8 10 -5 14 2 5 -5 17 -16 27 -11 10 -33 46 -49 80 -16 34 -36 67 -45
74 -8 7 -27 37 -41 69 -15 31 -34 64 -42 74 -18 20 -33 46 -61 103 -11 22 -27
47 -36 54 -8 7 -15 23 -15 36 0 12 -4 26 -10 29 -5 3 -10 37 -10 74 0 49 -4
72 -15 81 -10 8 -15 31 -15 66 0 29 -4 56 -10 59 -5 3 -10 37 -10 75 0 38 -4
72 -10 75 -5 3 -10 37 -10 76 0 39 -4 69 -10 69 -6 0 -10 26 -10 59 0 33 -4
63 -10 66 -5 3 -10 26 -10 49 0 27 -6 48 -15 56 -12 10 -15 38 -15 136 0 76
-4 124 -10 124 -6 0 -10 52 -10 135 0 83 -4 135 -10 135 -6 0 -10 32 -10 75 0
43 -4 75 -10 75 -6 0 -10 26 -10 59 0 33 -4 63 -10 66 -5 3 -10 35 -10 69 0
44 -5 67 -15 76 -9 7 -15 29 -15 51 0 22 -4 39 -10 39 -5 0 -10 18 -10 40 0
22 -4 40 -10 40 -5 0 -10 18 -10 39 0 22 -4 43 -10 46 -5 3 -10 24 -10 46 0
21 -4 39 -10 39 -5 0 -10 13 -10 29 0 16 -6 31 -15 35 -10 3 -15 19 -15 46 0
22 -4 40 -10 40 -5 0 -10 14 -10 30 0 17 -4 30 -10 30 -5 0 -10 9 -10 19 0 11
-4 23 -10 26 -5 3 -10 17 -10 30 0 13 -4 27 -10 30 -5 3 -10 17 -10 29 0 13
-7 29 -15 36 -8 7 -15 21 -15 31 0 10 -9 34 -20 54 -11 20 -20 47 -20 60 0 14
-4 25 -10 25 -5 0 -10 9 -10 20 0 11 -4 20 -10 20 -5 0 -10 14 -10 30 0 18 -6
33 -15 36 -8 4 -15 15 -15 25 0 10 -4 19 -10 19 -5 0 -10 9 -10 20 0 11 -4 20
-10 20 -5 0 -10 9 -10 20 0 11 -4 20 -10 20 -5 0 -10 6 -10 13 0 18 -28 75
-41 82 -5 4 -7 11 -4 16 4 5 -1 12 -9 15 -9 3 -16 15 -16 25 0 10 -4 19 -10
19 -5 0 -10 6 -10 13 0 21 -49 113 -70 132 -11 10 -20 24 -20 31 0 8 -9 19
-20 26 -11 7 -20 18 -20 24 0 21 -32 75 -51 87 -10 6 -19 20 -19 29 0 10 -4
18 -10 18 -5 0 -10 8 -10 18 0 10 -9 24 -20 32 -11 8 -20 22 -20 31 0 10 -11
26 -25 37 -14 11 -25 25 -25 32 0 7 -14 25 -30 40 -16 15 -30 33 -30 39 0 7
-16 25 -35 42 -19 17 -35 38 -35 48 0 9 -14 27 -30 40 -17 13 -30 29 -30 35 0
6 -25 36 -55 66 -30 30 -55 59 -55 65 0 6 -49 57 -110 115 -60 57 -110 108
-110 115 0 14 -102 115 -117 115 -6 0 -60 47 -120 105 -59 57 -114 104 -120
105 -7 0 -36 23 -64 50 -28 28 -56 50 -63 50 -7 0 -27 16 -46 35 -19 19 -40
35 -48 35 -8 0 -27 14 -42 30 -15 17 -34 30 -42 30 -8 0 -27 14 -43 30 -16 17
-35 30 -42 30 -7 0 -28 14 -45 31 -18 17 -51 39 -74 49 -22 11 -47 26 -54 35
-7 8 -21 15 -31 15 -11 0 -19 5 -19 10 0 6 -8 10 -19 10 -10 0 -24 7 -31 15
-13 15 -67 45 -82 45 -5 0 -19 9 -31 21 -12 11 -40 29 -63 39 -22 11 -47 26
-54 35 -7 8 -25 15 -41 15 -16 0 -29 5 -29 10 0 6 -7 10 -15 10 -8 0 -30 9
-50 20 -20 11 -42 20 -50 20 -8 0 -15 5 -15 10 0 6 -8 10 -17 11 -10 0 -31 9
-48 19 -52 32 -88 50 -102 50 -7 0 -13 5 -13 10 0 6 -9 10 -19 10 -11 0 -23 5
-26 10 -3 6 -19 10 -36 10 -16 0 -29 5 -29 10 0 6 -9 10 -20 10 -11 0 -20 5
-20 10 0 6 -13 10 -29 10 -17 0 -33 5 -36 10 -3 6 -19 10 -36 10 -16 0 -29 5
-29 10 0 6 -13 10 -29 10 -17 0 -33 5 -36 10 -3 6 -19 10 -36 10 -16 0 -29 4
-29 8 0 10 -71 42 -93 42 -9 0 -19 5 -22 10 -3 6 -24 10 -45 10 -21 0 -42 5
-45 10 -3 6 -24 10 -46 10 -21 0 -39 5 -39 10 0 6 -20 10 -45 10 -25 0 -45 5
-45 10 0 6 -13 10 -29 10 -17 0 -33 5 -36 10 -3 6 -24 10 -46 10 -21 0 -39 5
-39 10 0 6 -22 10 -49 10 -28 0 -53 5 -56 10 -3 6 -32 10 -64 10 -40 0 -63 5
-71 15 -9 11 -33 15 -86 15 -43 0 -74 4 -74 10 0 6 -28 10 -65 10 -37 0 -65 4
-65 10 0 6 -62 10 -165 10 -103 0 -165 4 -165 10 0 6 -93 10 -259 10 -163 0
-262 -4 -266 -10z m435 -40 c0 -6 68 -10 184 -10 151 0 186 -3 196 -15 9 -11
32 -15 81 -15 37 0 71 -4 74 -10 3 -5 33 -10 65 -10 32 0 62 -4 65 -10 3 -5
37 -10 75 -10 38 0 72 -4 75 -10 3 -5 24 -10 45 -10 21 0 42 -4 45 -10 3 -5
24 -10 46 -10 21 0 39 -4 39 -10 0 -5 18 -10 39 -10 22 0 43 -4 46 -10 3 -5
24 -10 45 -10 21 0 42 -4 45 -10 3 -5 24 -10 46 -10 21 0 39 -4 39 -10 0 -5
17 -10 39 -10 22 0 44 -6 51 -15 7 -8 23 -15 36 -15 13 0 39 -9 59 -20 20 -11
47 -20 60 -20 14 0 25 -4 25 -10 0 -5 13 -10 29 -10 17 0 33 -4 36 -10 3 -5
19 -10 36 -10 16 0 29 -4 29 -10 0 -5 11 -10 25 -10 13 0 40 -9 60 -20 20 -11
44 -20 54 -20 18 0 51 -15 106 -50 17 -10 38 -19 48 -19 9 -1 17 -5 17 -11 0
-5 7 -10 15 -10 8 0 30 -9 50 -20 20 -11 42 -20 50 -20 8 0 15 -4 15 -10 0 -5
9 -10 20 -10 11 0 20 -4 20 -10 0 -5 9 -10 19 -10 11 0 23 -4 26 -10 3 -5 16
-10 29 -10 12 0 33 -11 46 -25 13 -14 29 -25 35 -25 18 0 71 -28 85 -45 7 -8
21 -15 31 -15 11 0 19 -4 19 -10 0 -5 9 -10 20 -10 11 0 20 -4 20 -9 0 -5 24
-20 53 -35 30 -14 62 -35 72 -46 10 -11 26 -20 37 -20 10 0 18 -4 18 -10 0 -5
8 -10 18 -10 10 0 31 -13 47 -30 16 -16 35 -30 43 -30 8 0 27 -13 42 -30 15
-16 34 -30 42 -30 8 0 29 -16 48 -35 19 -19 39 -35 45 -35 7 0 26 -13 43 -30
18 -16 38 -30 45 -30 7 0 42 -29 77 -65 35 -36 70 -65 77 -65 7 0 56 -42 109
-92 52 -51 103 -95 111 -97 20 -4 43 -26 43 -40 0 -11 214 -223 231 -229 5 -2
9 -11 9 -20 0 -8 25 -39 55 -68 30 -29 55 -58 55 -64 0 -7 20 -30 45 -52 25
-22 45 -46 45 -52 0 -7 14 -25 30 -41 17 -16 30 -34 30 -40 0 -6 16 -26 35
-45 19 -19 35 -39 35 -45 0 -7 9 -20 20 -30 11 -10 20 -23 20 -30 0 -7 9 -20
20 -30 12 -11 28 -35 37 -54 9 -20 23 -44 31 -54 17 -19 36 -51 51 -85 6 -12
18 -25 26 -28 8 -4 15 -14 15 -24 0 -10 7 -23 15 -30 9 -7 25 -33 36 -57 11
-23 24 -43 29 -43 6 0 10 -9 10 -20 0 -11 5 -20 10 -20 6 0 10 -6 10 -13 0 -8
18 -47 39 -88 89 -168 131 -255 131 -270 0 -9 7 -22 15 -29 8 -7 15 -23 15
-36 0 -12 5 -26 10 -29 6 -3 10 -15 10 -26 0 -10 5 -19 10 -19 6 0 10 -13 10
-30 0 -16 5 -30 10 -30 6 0 10 -13 10 -30 0 -16 5 -30 10 -30 6 0 10 -9 10
-20 0 -11 7 -23 15 -26 9 -4 15 -19 15 -35 0 -16 5 -29 10 -29 6 0 10 -13 10
-29 0 -17 5 -33 10 -36 6 -3 10 -21 10 -40 0 -19 5 -37 10 -40 6 -3 10 -24 10
-46 0 -21 5 -39 10 -39 6 0 10 -14 10 -30 0 -18 6 -33 15 -36 10 -4 15 -20 15
-45 0 -21 5 -39 10 -39 6 0 10 -18 10 -39 0 -22 5 -43 10 -46 6 -3 10 -24 10
-46 0 -21 5 -39 10 -39 6 0 10 -30 10 -69 0 -39 5 -73 10 -76 6 -3 10 -30 10
-59 0 -35 5 -58 15 -66 11 -9 15 -32 15 -81 0 -37 5 -71 10 -74 6 -4 10 -63
10 -144 0 -75 4 -141 9 -146 5 -6 12 -93 15 -195 3 -102 8 -218 12 -257 6 -72
17 -93 27 -52 11 42 27 6 27 -61 0 -38 5 -72 10 -75 6 -3 10 -33 10 -66 0 -33
4 -59 10 -59 6 0 10 -30 10 -69 0 -39 5 -73 10 -76 6 -3 10 -37 10 -76 0 -39
4 -69 10 -69 6 0 10 -7 10 -15 0 -9 11 -26 25 -39 14 -13 25 -31 25 -40 0 -9
5 -16 10 -16 6 0 10 -9 10 -20 0 -11 5 -20 10 -20 6 0 10 -7 10 -16 0 -9 8
-24 19 -33 10 -9 21 -26 25 -38 4 -13 12 -23 17 -23 5 0 9 -9 9 -20 0 -11 5
-20 10 -20 6 0 10 -8 10 -18 0 -10 9 -24 20 -32 11 -8 20 -22 20 -32 0 -10 4
-18 9 -18 5 0 12 -11 15 -25 4 -14 11 -25 16 -25 6 0 10 -8 10 -18 0 -10 9
-24 20 -32 11 -8 20 -22 20 -32 0 -10 5 -18 10 -18 6 0 10 -9 10 -20 0 -11 5
-20 10 -20 6 0 10 -9 10 -20 0 -11 7 -23 15 -26 8 -4 15 -12 15 -20 0 -17 18
-50 43 -78 9 -11 17 -24 17 -30 0 -5 6 -17 14 -25 18 -20 65 -101 73 -123 3
-10 9 -18 14 -18 5 0 9 -7 9 -15 0 -9 16 -29 35 -46 19 -17 35 -38 35 -46 0
-8 20 -33 45 -55 25 -22 45 -46 45 -52 0 -7 14 -25 30 -41 17 -16 30 -34 30
-40 0 -7 9 -20 20 -30 12 -11 34 -47 51 -82 16 -34 34 -65 40 -69 6 -3 15 -16
20 -27 15 -33 34 -65 51 -84 8 -10 22 -34 31 -54 9 -19 25 -43 36 -53 11 -10
18 -22 16 -27 -3 -4 -1 -10 4 -14 6 -3 28 -44 51 -90 23 -46 45 -87 51 -90 5
-4 7 -10 4 -15 -3 -5 -1 -11 4 -15 14 -8 41 -65 41 -86 0 -10 5 -21 10 -24 6
-3 10 -15 10 -26 0 -10 5 -19 10 -19 6 0 10 -6 10 -14 0 -7 7 -19 15 -26 8 -7
13 -16 10 -20 -3 -4 2 -13 10 -20 8 -7 15 -25 15 -41 0 -16 5 -29 10 -29 6 0
10 -9 10 -20 0 -11 5 -20 10 -20 6 0 10 -13 10 -30 0 -16 5 -30 10 -30 6 0 10
-13 10 -29 0 -16 6 -34 14 -40 8 -7 12 -20 9 -30 -2 -9 3 -23 11 -30 9 -8 16
-24 16 -37 0 -12 5 -26 10 -29 6 -3 10 -15 10 -25 0 -11 9 -35 20 -55 11 -20
20 -47 20 -60 0 -14 5 -25 10 -25 6 0 10 -18 10 -40 0 -27 5 -43 15 -46 10 -4
15 -20 15 -45 0 -21 5 -39 10 -39 6 0 10 -18 10 -39 0 -22 5 -43 10 -46 6 -3
10 -17 10 -30 0 -13 5 -27 10 -30 6 -3 10 -28 10 -56 0 -27 5 -49 10 -49 6 0
10 -22 10 -49 0 -31 5 -53 15 -61 11 -9 15 -32 15 -81 0 -39 4 -69 10 -69 6 0
10 -30 10 -69 0 -39 5 -73 10 -76 6 -3 10 -37 10 -76 0 -39 4 -69 10 -69 6 0
10 -73 10 -200 0 -127 4 -200 10 -200 6 0 10 -50 10 -130 0 -80 -4 -130 -10
-130 -6 0 -10 -77 -10 -210 0 -133 -4 -210 -10 -210 -6 0 -10 -30 -10 -69 0
-39 -4 -73 -10 -76 -5 -3 -10 -37 -10 -74 0 -37 -4 -71 -9 -76 -6 -6 -11 -38
-12 -73 -1 -37 -8 -67 -16 -73 -7 -7 -13 -32 -13 -60 0 -27 -4 -49 -10 -49 -5
0 -10 -18 -10 -39 0 -22 -4 -43 -10 -46 -5 -3 -10 -21 -10 -40 0 -19 -4 -37
-10 -40 -5 -3 -10 -24 -10 -46 0 -21 -4 -39 -10 -39 -5 0 -10 -18 -10 -40 0
-27 -5 -43 -15 -46 -8 -4 -15 -19 -15 -34 0 -16 -4 -32 -10 -35 -5 -3 -10 -17
-10 -30 0 -13 -4 -27 -10 -30 -5 -3 -10 -17 -10 -30 0 -13 -5 -27 -10 -30 -5
-3 -10 -17 -10 -30 0 -13 -5 -27 -10 -30 -5 -3 -10 -19 -10 -36 0 -16 -4 -29
-9 -29 -13 0 -41 -59 -41 -87 0 -12 -4 -23 -10 -23 -5 0 -10 -13 -10 -30 0
-16 -4 -30 -10 -30 -5 0 -10 -13 -10 -29 0 -17 -4 -33 -10 -36 -5 -3 -10 -17
-10 -29 0 -13 -7 -29 -15 -36 -8 -7 -13 -16 -10 -20 3 -5 1 -11 -4 -15 -6 -3
-28 -44 -51 -90 -23 -46 -45 -87 -51 -90 -5 -4 -7 -10 -4 -15 3 -5 1 -11 -4
-14 -5 -4 -33 -52 -61 -109 -77 -152 -96 -186 -114 -205 -9 -10 -16 -26 -16
-35 0 -9 -4 -17 -10 -17 -5 0 -10 -6 -10 -13 0 -8 -9 -22 -20 -32 -12 -11 -28
-35 -37 -54 -9 -20 -23 -44 -31 -54 -16 -18 -35 -50 -51 -82 -5 -11 -21 -31
-35 -44 -14 -14 -26 -30 -26 -36 0 -6 -16 -26 -35 -45 -19 -19 -35 -39 -35
-45 0 -6 -13 -24 -30 -40 -16 -16 -30 -34 -30 -41 0 -7 -11 -21 -25 -32 -14
-11 -25 -25 -25 -32 0 -7 -13 -25 -30 -40 -16 -15 -30 -34 -30 -40 0 -7 -40
-51 -90 -98 -49 -46 -90 -90 -90 -97 0 -7 -45 -55 -100 -106 -55 -52 -100
-102 -100 -111 0 -10 -8 -18 -17 -18 -10 0 -58 -39 -106 -85 -49 -47 -93 -85
-100 -85 -6 0 -54 -43 -108 -95 -53 -52 -103 -95 -111 -95 -8 0 -27 -14 -43
-30 -16 -17 -34 -30 -40 -30 -7 0 -20 -9 -30 -20 -10 -11 -24 -20 -32 -20 -7
0 -34 -20 -61 -45 -26 -25 -52 -45 -58 -45 -5 0 -23 -13 -39 -30 -16 -16 -36
-30 -45 -30 -8 0 -22 -9 -30 -20 -8 -11 -19 -20 -26 -20 -17 0 -70 -29 -84
-45 -7 -8 -20 -15 -30 -15 -10 0 -23 -7 -30 -15 -7 -8 -18 -15 -25 -15 -7 0
-18 -7 -25 -15 -14 -16 -67 -45 -84 -45 -7 0 -18 -9 -26 -20 -8 -11 -22 -20
-31 -20 -9 0 -22 -7 -29 -15 -14 -17 -67 -45 -86 -45 -7 0 -14 -5 -16 -11 -2
-5 -10 -11 -18 -12 -8 -2 -22 -7 -30 -12 -37 -24 -64 -35 -86 -35 -13 0 -24
-4 -24 -10 0 -5 -7 -10 -15 -10 -8 0 -30 -9 -50 -20 -20 -11 -42 -20 -50 -20
-8 0 -15 -4 -15 -10 0 -5 -7 -10 -15 -10 -8 0 -30 -9 -50 -20 -20 -11 -44 -20
-54 -20 -10 0 -24 -7 -31 -15 -7 -8 -21 -15 -31 -15 -11 0 -19 -4 -19 -10 0
-5 -13 -10 -29 -10 -17 0 -33 -4 -36 -10 -3 -5 -15 -10 -26 -10 -10 0 -19 -4
-19 -10 0 -5 -11 -10 -25 -10 -13 0 -40 -9 -60 -20 -20 -11 -47 -20 -60 -20
-14 0 -25 -4 -25 -10 0 -5 -13 -10 -29 -10 -17 0 -33 -5 -36 -10 -3 -6 -19
-10 -35 -10 -16 0 -32 -4 -35 -10 -3 -5 -21 -10 -39 -10 -19 0 -39 -7 -46 -15
-7 -9 -29 -15 -51 -15 -21 0 -41 -5 -44 -10 -3 -6 -24 -10 -46 -10 -21 0 -39
-4 -39 -10 0 -5 -18 -10 -39 -10 -22 0 -43 -4 -46 -10 -3 -5 -24 -10 -45 -10
-21 0 -42 -4 -45 -10 -3 -5 -28 -10 -55 -10 -27 0 -52 -5 -55 -10 -3 -6 -37
-10 -75 -10 -38 0 -72 -5 -75 -10 -3 -6 -33 -10 -65 -10 -32 0 -62 -4 -65 -10
-3 -5 -28 -10 -55 -10 -27 0 -52 -5 -55 -10 -3 -6 -48 -10 -99 -10 -56 0 -96
-4 -104 -12 -7 -7 -79 -13 -212 -16 -110 -3 -203 -9 -206 -13 -7 -12 -51 -12
-58 0 -3 4 -98 10 -211 13 -134 4 -210 9 -218 17 -6 6 -47 11 -98 11 -48 0
-91 5 -94 10 -3 6 -28 10 -55 10 -27 0 -52 5 -55 10 -3 6 -33 10 -65 10 -32 0
-62 5 -65 10 -3 5 -40 10 -81 10 -43 0 -74 4 -74 10 0 6 -25 10 -55 10 -30 0
-55 5 -55 10 0 6 -13 10 -29 10 -17 0 -33 4 -36 10 -3 5 -28 10 -55 10 -27 0
-52 5 -55 10 -3 6 -21 10 -40 10 -19 0 -37 5 -40 10 -3 6 -23 10 -44 10 -22 0
-44 6 -51 15 -7 9 -29 15 -51 15 -22 0 -39 5 -39 10 0 6 -13 10 -29 10 -17 0
-33 4 -36 10 -3 5 -15 10 -26 10 -10 0 -19 5 -19 10 0 6 -13 10 -29 10 -17 0
-33 4 -36 10 -3 5 -19 10 -36 10 -16 0 -29 5 -29 10 0 6 -9 10 -20 10 -11 0
-20 5 -20 10 0 6 -13 10 -29 10 -17 0 -33 5 -36 10 -3 6 -15 10 -26 10 -10 0
-19 5 -19 10 0 6 -13 10 -29 10 -16 0 -34 7 -41 15 -7 8 -23 15 -36 15 -12 0
-26 5 -29 10 -3 6 -15 10 -26 10 -10 0 -19 5 -19 10 0 6 -7 10 -15 10 -8 0
-30 9 -50 20 -20 11 -42 20 -50 20 -8 0 -15 5 -15 10 0 6 -6 10 -14 10 -8 0
-40 14 -71 30 -31 17 -63 30 -70 30 -7 0 -18 7 -25 15 -7 8 -22 15 -35 15 -12
0 -30 9 -40 20 -10 11 -25 20 -34 20 -9 0 -23 9 -31 20 -8 11 -19 20 -26 20
-17 0 -70 29 -84 45 -7 8 -21 15 -31 15 -11 0 -19 5 -19 10 0 6 -8 10 -18 10
-11 0 -27 9 -37 20 -10 11 -42 32 -72 46 -29 15 -53 30 -53 35 0 5 -8 9 -18 9
-11 0 -27 9 -37 20 -10 11 -23 20 -30 20 -6 0 -26 16 -45 35 -19 19 -40 35
-48 35 -8 0 -27 13 -42 30 -15 16 -34 30 -42 30 -8 0 -27 13 -43 30 -16 16
-35 30 -42 30 -7 0 -30 16 -50 35 -20 19 -42 35 -48 35 -5 0 -59 47 -118 105
-60 57 -115 105 -122 107 -19 4 -325 299 -325 313 0 7 -29 40 -65 74 -36 33
-65 65 -65 71 0 6 -25 34 -55 62 -30 28 -55 57 -55 65 0 7 -16 27 -35 44 -19
17 -35 37 -35 43 0 7 -14 25 -30 41 -17 16 -30 34 -30 40 0 6 -16 26 -35 45
-19 19 -35 39 -35 45 0 7 -9 20 -20 30 -11 10 -20 23 -20 30 0 6 -11 22 -25
35 -14 13 -25 28 -25 35 0 6 -9 17 -20 25 -11 8 -20 22 -20 32 0 10 -4 18 -10
18 -5 0 -10 9 -10 19 0 11 -11 28 -25 39 -14 11 -25 26 -25 34 0 7 -9 20 -20
28 -11 8 -20 22 -20 32 0 10 -4 18 -10 18 -5 0 -10 9 -10 20 0 11 -4 20 -10
20 -5 0 -10 9 -10 19 0 11 -11 28 -25 39 -14 11 -25 27 -25 36 0 9 -4 16 -10
16 -5 0 -10 9 -10 20 0 11 -4 20 -10 20 -5 0 -10 12 -11 28 0 15 -9 41 -20 57
-11 17 -22 38 -25 47 -4 10 -10 18 -15 18 -5 0 -9 6 -9 13 0 15 -61 139 -80
162 -7 8 -9 15 -5 15 5 0 2 8 -6 18 -22 27 -39 60 -39 77 0 8 -9 30 -20 50
-11 20 -20 46 -20 59 0 13 -7 27 -16 30 -10 4 -13 13 -9 25 3 10 -1 24 -10 31
-8 7 -15 25 -15 41 0 16 -4 29 -10 29 -5 0 -10 14 -10 30 0 17 -4 30 -10 30
-5 0 -10 13 -10 29 0 17 -4 33 -10 36 -5 3 -10 17 -10 29 0 13 -7 29 -15 36
-8 7 -13 24 -11 41 2 16 -3 34 -10 40 -8 6 -14 29 -14 50 0 22 -4 39 -10 39
-5 0 -10 18 -10 40 0 22 -4 40 -10 40 -5 0 -10 13 -10 29 0 17 -4 33 -10 36
-5 3 -10 21 -10 40 0 19 -4 37 -10 40 -5 3 -10 21 -10 39 0 19 -7 39 -15 46
-10 8 -15 30 -15 61 0 27 -4 49 -10 49 -6 0 -10 32 -10 75 0 43 -4 75 -10 75
-6 0 -10 26 -10 59 0 33 -4 63 -10 66 -5 3 -10 42 -10 86 0 46 -4 79 -10 79
-6 0 -10 31 -10 73 0 39 -10 110 -21 157 -37 157 -53 292 -66 528 -3 67 -10
125 -14 128 -5 3 -9 40 -9 83 0 58 -4 82 -15 91 -11 9 -15 35 -15 101 0 53 -4
89 -10 89 -6 0 -10 38 -10 95 0 57 -4 95 -10 95 -6 0 -10 38 -10 95 0 57 -4
95 -10 95 -6 0 -10 36 -10 89 0 50 -4 93 -10 96 -5 3 -10 28 -10 55 0 33 -5
50 -15 54 -9 3 -15 18 -15 36 0 16 -4 30 -10 30 -5 0 -10 9 -10 20 0 11 -4 20
-10 20 -5 0 -10 14 -10 30 0 17 -4 30 -10 30 -5 0 -10 9 -10 19 0 11 -4 23
-10 26 -5 3 -10 17 -10 30 0 13 -4 26 -9 30 -13 7 -41 64 -41 81 0 7 -9 29
-20 49 -11 20 -20 47 -20 60 0 14 -4 25 -10 25 -5 0 -10 9 -10 19 0 10 -7 21
-15 25 -9 3 -15 18 -15 36 0 16 -4 30 -10 30 -5 0 -10 14 -10 30 0 17 -4 30
-10 30 -5 0 -10 9 -10 20 0 11 -4 20 -10 20 -5 0 -10 11 -10 23 0 26 -25 83
-41 92 -5 4 -9 15 -9 25 0 11 -9 35 -20 55 -11 20 -20 42 -20 50 0 8 -9 30
-20 50 -11 20 -20 44 -20 54 0 10 -7 24 -15 31 -8 7 -13 16 -10 20 3 4 -2 13
-10 20 -8 7 -15 25 -15 41 0 16 -4 29 -10 29 -5 0 -10 9 -10 20 0 11 -4 20
-10 20 -5 0 -10 14 -10 30 0 17 -4 30 -10 30 -5 0 -10 8 -10 19 0 10 -6 24
-14 30 -8 7 -12 21 -9 31 3 12 -1 22 -11 26 -10 4 -16 18 -16 35 0 16 -4 29
-10 29 -5 0 -10 8 -10 18 0 10 -3 22 -7 25 -3 4 -8 43 -10 88 -1 44 -7 89 -13
99 -5 10 -10 28 -10 40 0 26 -29 121 -41 134 -5 6 -9 20 -9 32 0 13 -5 26 -10
29 -6 3 -10 19 -10 36 0 16 -4 29 -10 29 -5 0 -10 14 -10 30 0 17 -4 30 -10
30 -5 0 -10 9 -10 19 0 11 -5 23 -10 26 -6 3 -10 21 -10 39 0 19 -7 39 -15 46
-8 7 -15 27 -15 46 0 18 -5 36 -10 39 -6 3 -10 24 -10 46 0 21 -4 39 -10 39
-5 0 -10 18 -10 40 0 22 -4 40 -10 40 -5 0 -10 18 -10 39 0 22 -5 43 -10 46
-5 3 -10 21 -10 39 0 19 -7 39 -15 46 -11 9 -15 32 -15 81 0 39 -4 69 -10 69
-6 0 -10 26 -10 59 0 33 -4 63 -10 66 -5 3 -10 37 -10 75 0 38 -5 72 -10 75
-6 4 -10 75 -10 181 0 109 -4 174 -10 174 -6 0 -10 60 -10 160 0 100 4 160 10
160 6 0 10 67 10 180 0 113 4 180 10 180 6 0 10 30 10 69 0 39 5 73 10 76 6 3
10 33 10 66 0 33 4 59 10 59 6 0 10 30 10 69 0 49 4 72 15 81 8 7 15 27 15 46
0 18 4 36 10 39 5 3 10 24 10 46 0 21 5 39 10 39 6 0 10 18 10 39 0 22 4 43
10 46 5 3 10 21 10 40 0 19 4 37 10 40 5 3 10 23 10 45 0 24 5 40 15 44 10 3
15 19 15 46 0 22 5 40 10 40 6 0 10 9 10 20 0 11 5 20 10 20 6 0 10 14 10 30
0 17 5 30 10 30 6 0 10 13 10 29 0 17 4 33 10 36 5 3 10 17 10 30 0 13 4 26 9
30 14 8 41 65 41 86 0 10 5 21 10 24 6 3 10 19 10 36 0 16 5 29 10 29 6 0 10
9 10 20 0 11 5 20 10 20 6 0 10 9 10 20 0 11 5 20 10 20 6 0 10 6 10 14 0 7 7
19 15 26 8 7 15 21 15 31 0 11 5 19 10 19 6 0 10 14 10 30 0 17 5 30 10 30 6
0 10 9 10 20 0 11 5 20 10 20 6 0 10 8 10 19 0 10 7 24 15 31 8 7 15 19 15 26
0 8 5 14 10 14 6 0 10 9 10 20 0 11 5 20 10 20 6 0 10 9 10 20 0 11 5 20 10
20 6 0 10 8 10 18 0 11 9 27 20 37 11 10 20 24 20 32 0 7 7 16 15 19 8 4 15
14 15 23 0 9 9 23 20 31 11 8 20 21 20 30 0 9 9 22 20 30 11 8 20 23 20 33 0
9 7 20 15 23 8 4 15 14 15 23 0 9 9 23 20 31 11 8 20 22 20 32 0 10 5 18 10
18 6 0 10 7 10 16 0 8 16 30 35 48 19 19 35 39 35 46 0 6 14 25 30 40 17 15
30 32 30 37 0 5 16 24 35 43 19 19 35 39 35 45 0 6 16 26 35 45 19 19 35 39
35 45 0 7 29 40 65 74 36 35 65 67 65 73 0 5 17 26 38 46 21 20 121 116 221
212 101 96 189 176 196 178 8 2 48 37 91 78 42 41 82 74 88 74 6 0 25 14 43
30 18 17 37 30 43 30 6 0 28 16 48 35 20 19 42 35 48 35 6 0 19 9 29 20 10 11
25 20 33 20 7 0 27 14 42 30 15 17 35 30 42 30 8 0 23 9 33 20 10 11 23 20 30
20 6 0 22 11 35 25 13 14 32 25 42 25 10 0 18 5 18 10 0 6 8 10 19 10 10 0 24
7 31 15 14 16 67 45 84 45 7 0 18 9 26 20 8 11 19 20 26 20 18 0 70 29 89 50
10 11 31 20 47 20 15 0 28 5 28 10 0 6 7 10 15 10 8 0 30 9 50 20 20 11 42 20
50 20 8 0 15 5 15 10 0 6 7 10 15 10 8 0 30 9 50 20 20 11 42 20 50 20 8 0 15
5 15 10 0 6 8 10 19 10 10 0 24 7 31 15 7 8 16 13 20 10 4 -3 13 2 20 10 7 8
23 15 36 15 12 0 26 5 29 10 3 6 17 10 30 10 14 0 40 9 60 20 20 11 47 20 60
20 14 0 25 5 25 10 0 6 13 10 29 10 17 0 33 5 36 10 3 6 19 10 36 10 16 0 29
5 29 10 0 6 9 10 19 10 11 0 23 5 26 10 3 6 17 10 29 10 13 0 29 7 36 15 7 9
29 15 51 15 21 0 41 5 44 10 3 6 24 10 46 10 21 0 39 5 39 10 0 6 20 10 45 10
25 0 45 5 45 10 0 6 18 10 39 10 22 0 43 5 46 10 3 6 24 10 46 10 21 0 39 5
39 10 0 6 20 10 45 10 25 0 45 5 45 10 0 6 31 10 74 10 41 0 78 5 81 10 3 6
37 10 75 10 38 0 72 5 75 10 3 6 32 10 64 10 40 0 63 5 71 15 10 12 44 15 191
15 108 0 180 4 184 10 4 6 73 10 176 10 106 0 169 -4 169 -10z"/>
</g>
</svg>
